<?xml version="1.0" encoding="UTF-8" standalone="no"?>
<!-- Created with Inkscape (http://www.inkscape.org/) -->

<svg
   xmlns:dc="http://purl.org/dc/elements/1.1/"
   xmlns:cc="http://creativecommons.org/ns#"
   xmlns:rdf="http://www.w3.org/1999/02/22-rdf-syntax-ns#"
   xmlns:svg="http://www.w3.org/2000/svg"
   xmlns="http://www.w3.org/2000/svg"
   xmlns:sodipodi="http://sodipodi.sourceforge.net/DTD/sodipodi-0.dtd"
   xmlns:inkscape="http://www.inkscape.org/namespaces/inkscape"
   width="96.383568mm"
   height="82.300652mm"
   viewBox="0 0 96.383568 82.300652"
   version="1.1"
   id="svg1247"
   inkscape:version="0.92+devel (unknown)"
   sodipodi:docname="kangoo.svg">
  <defs
     id="defs1241" />
  <sodipodi:namedview
     id="base"
     pagecolor="#ffffff"
     bordercolor="#666666"
     borderopacity="1.0"
     inkscape:pageopacity="0.0"
     inkscape:pageshadow="2"
     inkscape:zoom="1.4"
     inkscape:cx="321.21369"
     inkscape:cy="195.77178"
     inkscape:document-units="mm"
     inkscape:current-layer="layer1"
     inkscape:document-rotation="0"
     showgrid="false"
     fit-margin-left="10"
     fit-margin-top="10"
     fit-margin-right="10"
     fit-margin-bottom="10"
     lock-margins="true"
     inkscape:window-width="1680"
     inkscape:window-height="1023"
     inkscape:window-x="0"
     inkscape:window-y="27"
     inkscape:window-maximized="1" />
  <metadata
     id="metadata1244">
    <rdf:RDF>
      <cc:Work
         rdf:about="">
        <dc:format>image/svg+xml</dc:format>
        <dc:type
           rdf:resource="http://purl.org/dc/dcmitype/StillImage" />
        <dc:title></dc:title>
      </cc:Work>
    </rdf:RDF>
  </metadata>
  <g
     inkscape:label="Layer 1"
     inkscape:groupmode="layer"
     id="layer1"
     transform="translate(-63.277702,-96.024279)">
    <path
       style="opacity:1;stroke:#006680;stroke-width:0.70555556;stroke-linecap:round;stroke-miterlimit:4;stroke-dasharray:none"
       inkscape:connector-curvature="0"
       id="path1044"
       d="m 133.59218,117.86884 c 0.0636,4.69573 -6.37129,10.73837 -11.13271,14.22904 -4.75923,3.49068 -7.11779,11.81247 -7.14356,21.55569 -0.0306,11.97397 -5.91407,10.16757 -17.843004,10.41888 -11.931658,0.24963 -22.969897,3.59439 -22.969897,3.59439 0,0 2.277205,0.67921 12.882799,0.0114 10.605594,-0.66784 21.777652,-0.69795 25.366962,-1.07339 3.59041,-0.37651 6.91329,-5.30071 10.70345,-6.18759"
       stroke-miterlimit="10"
       stroke="#9AD7F3"
       fill="none" />
    <path
       style="opacity:1;stroke:#006680;stroke-width:0.70555556;stroke-linecap:round;stroke-miterlimit:4;stroke-dasharray:none"
       inkscape:connector-curvature="0"
       id="path1046"
       d="m 135.72091,111.58426 c -0.67787,0.83538 -1.64499,1.27284 -2.18105,1.9639 -0.11047,0.14412 -0.20347,0.3 -0.27025,0.47213 -0.39101,0.99877 -0.21122,4.28364 2.06177,6.78675 2.27407,2.50478 2.56872,1.21867 2.65221,1.07811 0,0 0.24556,0.76687 1.09588,-0.24775 0.8514,-1.0135 3.02721,-5.13998 1.81619,-7.2592 -1.21103,-2.12031 -3.08645,-2.38603 -3.4168,-3.34267"
       stroke-miterlimit="10"
       stroke="#9AD7F3"
       fill="none" />
    <path
       style="opacity:1;stroke:#006680;stroke-width:0.70555556;stroke-linecap:round;stroke-miterlimit:4;stroke-dasharray:none"
       inkscape:connector-curvature="0"
       id="path1048"
       d="m 133.74588,116.0521 c 0,0 0.24111,-0.22361 0.57251,-0.35758 0.3325,-0.13341 0.75641,-0.17883 1.12361,0.17979 0.7366,0.71613 -0.35747,0.99914 -0.74245,1.10444 -0.3844,0.1042 -0.71253,-0.65477 -0.38116,-1.28368"
       stroke-miterlimit="10"
       stroke="#9AD7F3"
       fill="none" />
    <path
       style="opacity:1;stroke:#006680;stroke-width:0.70555556;stroke-linecap:round;stroke-miterlimit:4;stroke-dasharray:none"
       inkscape:connector-curvature="0"
       id="path1050"
       d="m 140.75862,115.28399 c -0.13047,0.0139 -1.03003,-0.38741 -1.46821,0.15444 -0.43874,0.54183 0.0199,0.82823 0.56575,1.00053 0.54687,0.17231 0.65986,-0.74695 0.30878,-1.27109"
       stroke-miterlimit="10"
       stroke="#9AD7F3"
       fill="none" />
    <path
       style="opacity:1;fill:#006680;fill-opacity:1;stroke:none;stroke-width:0.70555556;stroke-linecap:round;stroke-miterlimit:4;stroke-dasharray:none;stroke-opacity:1"
       inkscape:connector-curvature="0"
       id="path1052"
       d="m 137.70691,118.61077 c -0.55151,-0.10131 -2.04711,1.23811 -0.9734,2.05101 1.07538,0.81128 1.0102,0.1912 1.17533,-0.12298 0,0 0.21254,0.77035 0.74521,0.18661 0.5338,-0.58539 0.66844,-1.82152 -0.94714,-2.11464 z"
       stroke-miterlimit="10"
       stroke="#9AD7F3"
       fill="none" />
    <path
       style="opacity:1;stroke:#006680;stroke-width:0.70555556;stroke-linecap:round;stroke-miterlimit:4;stroke-dasharray:none"
       inkscape:connector-curvature="0"
       id="path1054"
       d="m 137.04977,113.78956 c 0,0 -0.048,-2.57157 -0.93382,-3.46993 -0.88417,-0.8978 -4.03601,-4.43024 -5.95789,-2.08526 -0.59473,0.72455 0.58987,1.8536 0.91415,2.76173 0.32703,0.90815 0.86492,1.64412 1.5905,1.9643 0.72834,0.3202 0.92555,0.13961 1.08652,0.35114"
       stroke-miterlimit="10"
       stroke="#9AD7F3"
       fill="none" />
    <path
       style="opacity:1;stroke:#006680;stroke-width:0.70555556;stroke-linecap:round;stroke-miterlimit:4;stroke-dasharray:none"
       inkscape:connector-curvature="0"
       id="path1056"
       d="m 136.71035,111.11677 c 0,0 -0.17727,-0.27943 0.69671,-1.39453 0.87341,-1.11509 3.00156,-4.11295 4.68525,-3.16668 1.68204,0.94736 0.48117,2.08637 0.073,3.24131 -0.40702,1.15494 -0.88466,1.83288 -1.28743,2.3041 -0.40385,0.47065 -0.78755,0.85785 -0.62008,1.37776"
       stroke-miterlimit="10"
       stroke="#9AD7F3"
       fill="none" />
    <path
       style="opacity:1;stroke:#006680;stroke-width:0.70555556;stroke-linecap:round;stroke-miterlimit:4;stroke-dasharray:none"
       inkscape:connector-curvature="0"
       id="path1058"
       d="m 137.70769,126.79734 c -0.0542,3.56746 -0.44897,5.24831 1.36152,6.91114 1.81049,1.66283 2.73175,3.1347 3.67727,3.60541 0.94716,0.47183 1.64158,0.82635 0.96277,1.8957 -0.6799,1.06769 -1.06025,1.74947 -1.99988,1.49134 -0.94073,-0.2576 -2.13373,-0.77398 -1.50757,-0.9113 0.62728,-0.13731 1.06281,-0.5388 1.08554,-0.75491 0.0238,-0.2161 0.22872,-0.59371 -0.36638,-1.0297 -0.59507,-0.43711 -0.78747,-0.39244 -2.68755,-1.80962 -1.89955,-1.41607 -4.14353,-2.46433 -4.7359,-4.04158 -0.59073,-1.57668 -0.37923,-2.95235 -0.36685,-3.52422"
       stroke-miterlimit="10"
       stroke="#9AD7F3"
       fill="none" />
    <path
       style="opacity:1;stroke:#006680;stroke-width:0.70555556;stroke-linecap:round;stroke-miterlimit:4;stroke-dasharray:none"
       inkscape:connector-curvature="0"
       id="path1060"
       d="m 141.39673,117.05113 c 0,0 -0.53178,1.69584 0.77714,4.06387 1.31,2.36861 1.71064,4.17937 1.92124,6.86559 0.2084,2.6862 2.73604,7.12454 2.77271,8.83052 0.0344,1.70651 -0.32397,3.73955 -1.36279,4.34688 -1.03938,0.60788 -1.9757,0.34978 -1.575,0.16482 0.3996,-0.18441 0.53676,-0.35577 0.27096,-0.78428 -0.26361,-0.42793 -0.7597,-0.5182 -0.10592,-1.01417 0.65544,-0.49595 0.19734,-0.79004 0.58632,-1.15847 0.38734,-0.36843 1.13136,-0.72081 0.28951,-2.31293 -0.8413,-1.5921 -1.62711,-4.07493 -3.41961,-5.02736"
       stroke-miterlimit="10"
       stroke="#9AD7F3"
       fill="none" />
    <path
       style="opacity:1;stroke:#006680;stroke-width:0.70555556;stroke-linecap:round;stroke-miterlimit:4;stroke-dasharray:none"
       inkscape:connector-curvature="0"
       id="path1062"
       d="m 141.60585,126.38788 c -0.0595,0.3627 -0.002,8.8472 0.0356,10.01366"
       stroke-miterlimit="10"
       stroke="#9AD7F3"
       fill="none" />
    <path
       style="opacity:1;stroke:#006680;stroke-width:0.70555556;stroke-linecap:round;stroke-miterlimit:4;stroke-dasharray:none"
       inkscape:connector-curvature="0"
       id="path1064"
       d="m 141.1855,140.53823 c 0,0 0.89485,2.61671 0.42019,4.02086 -0.47356,1.40415 -0.37969,3.9553 -0.37969,3.9553 0,0 2.35254,9.58342 -9.50423,12.11092"
       stroke-miterlimit="10"
       stroke="#9AD7F3"
       fill="none" />
    <path
       style="opacity:1;stroke:#006680;stroke-width:0.70555556;stroke-linecap:round;stroke-miterlimit:4;stroke-dasharray:none"
       inkscape:connector-curvature="0"
       id="path1066"
       d="m 118.47037,147.05166 c 1.76988,-2.82179 2.84215,-7.55011 7.20144,-6.69593 4.35983,0.85419 4.79524,2.30473 6.08369,3.73827 1.28846,1.43189 1.53176,2.40408 1.05957,5.37564 -0.47219,2.97101 -0.26312,4.30289 -0.61936,6.33596 -0.35788,2.03195 -0.86442,4.67776 -0.11479,6.40318 0.74856,1.72432 0.8595,2.78205 2.00021,2.80567 1.14182,0.0236 7.28988,-0.12148 9.3524,-0.26604 2.06361,-0.14456 2.82412,-0.29691 4.0727,0.71392 1.24694,1.00972 1.66485,1.60672 0.68635,1.78089 -0.97849,0.17416 -1.86266,-0.37569 -3.35399,-0.21931 -1.49243,0.15638 -5.88791,0.18872 -7.85204,0.53697 -1.96304,0.34827 -6.58367,0.40345 -7.66141,0.30345 -1.07717,-0.10111 -1.61213,0.23984 -1.38512,-0.99528 0.22811,-1.23509 0.86375,-5.36374 -0.0736,-5.47871 -0.93679,-0.11606 -0.76654,0.15174 -2.01453,-0.21661 -1.24907,-0.36891 -4.40164,-1.25104 -6.1828,-2.63167"
       stroke-miterlimit="10"
       stroke="#9AD7F3"
       fill="none" />
    <path
       style="opacity:1;stroke:#006680;stroke-width:0.70555556;stroke-linecap:round;stroke-miterlimit:4;stroke-dasharray:none"
       inkscape:connector-curvature="0"
       id="path1068"
       d="m 133.92351,160.02369 c -0.0388,0.37944 -0.79398,3.37981 0.94033,3.62635 1.73379,0.24544 9.55398,-0.64367 11.71888,-0.30043 2.16489,0.34325 2.22355,0.9071 2.66274,1.71629 0,0 -0.56456,0.78269 -1.46842,0.62185"
       stroke-miterlimit="10"
       stroke="#9AD7F3"
       fill="none" />
  </g>
</svg>
